<mxfile host="app.diagrams.net" modified="2023-04-20T10:27:41.820Z" agent="5.0 (Macintosh; Intel Mac OS X 10_15_7) AppleWebKit/537.36 (KHTML, like Gecko) Chrome/111.0.0.0 Safari/537.36" etag="UUzp8bJeZsUGTy15o5-V" version="20.5.3" type="github">
  <diagram id="m2yf274t8tq8ouvesx9-" name="Page-1">
    <mxGraphModel dx="1426" dy="1963" grid="1" gridSize="10" guides="1" tooltips="1" connect="1" arrows="1" fold="1" page="1" pageScale="1" pageWidth="827" pageHeight="1169" math="0" shadow="0">
      <root>
        <mxCell id="0" />
        <mxCell id="1" parent="0" />
        <mxCell id="6_3hUqjpFfgXBnWn_kRa-1" value="" style="rounded=0;whiteSpace=wrap;html=1;dashed=1;strokeWidth=2;fillColor=#E6E6E6;strokeColor=#333333;" parent="1" vertex="1">
          <mxGeometry x="40" y="-290" width="1470" height="1060" as="geometry" />
        </mxCell>
        <object placeholders="1" c4Name="Current Event Collector" c4Type="ContainerScopeBoundary" c4Application="Container" label="&lt;font style=&quot;font-size: 16px&quot;&gt;&lt;b&gt;&lt;div style=&quot;text-align: left&quot;&gt;%c4Name%&lt;/div&gt;&lt;/b&gt;&lt;/font&gt;&lt;div style=&quot;text-align: left&quot;&gt;[%c4Application%]&lt;/div&gt;" id="TOB8HUzxCa0lJRpBpMYs-25">
          <mxCell style="rounded=1;fontSize=11;whiteSpace=wrap;html=1;dashed=1;arcSize=20;fillColor=default;strokeColor=#000000;fontColor=#333333;labelBackgroundColor=none;align=left;verticalAlign=bottom;labelBorderColor=none;spacingTop=0;spacing=10;dashPattern=8 4;metaEdit=1;rotatable=0;perimeter=rectanglePerimeter;noLabel=0;labelPadding=0;allowArrows=0;connectable=0;expand=0;recursiveResize=0;editable=1;pointerEvents=0;absoluteArcSize=1;points=[[0.25,0,0],[0.5,0,0],[0.75,0,0],[1,0.25,0],[1,0.5,0],[1,0.75,0],[0.75,1,0],[0.5,1,0],[0.25,1,0],[0,0.75,0],[0,0.5,0],[0,0.25,0]];fontFamily=Comic Sans MS;strokeWidth=3;" parent="1" vertex="1">
            <mxGeometry x="50" y="40" width="580" height="510" as="geometry" />
          </mxCell>
        </object>
        <object placeholders="1" c4Name="Next Event Collector" c4Type="ContainerScopeBoundary" c4Application="Container" label="&lt;font style=&quot;font-size: 16px&quot;&gt;&lt;b&gt;&lt;div style=&quot;text-align: left&quot;&gt;%c4Name%&lt;/div&gt;&lt;/b&gt;&lt;/font&gt;&lt;div style=&quot;text-align: left&quot;&gt;[%c4Application%]&lt;/div&gt;" id="6_3hUqjpFfgXBnWn_kRa-3">
          <mxCell style="rounded=1;fontSize=11;whiteSpace=wrap;html=1;dashed=1;arcSize=20;fillColor=default;strokeColor=#23A2D9;fontColor=#333333;labelBackgroundColor=none;align=left;verticalAlign=bottom;labelBorderColor=none;spacingTop=0;spacing=10;dashPattern=8 4;metaEdit=1;rotatable=0;perimeter=rectanglePerimeter;noLabel=0;labelPadding=0;allowArrows=0;connectable=0;expand=0;recursiveResize=0;editable=1;pointerEvents=0;absoluteArcSize=1;points=[[0.25,0,0],[0.5,0,0],[0.75,0,0],[1,0.25,0],[1,0.5,0],[1,0.75,0],[0.75,1,0],[0.5,1,0],[0.25,1,0],[0,0.75,0],[0,0.5,0],[0,0.25,0]];fontFamily=Comic Sans MS;strokeWidth=3;" parent="1" vertex="1">
            <mxGeometry x="690" y="40" width="810" height="510" as="geometry" />
          </mxCell>
        </object>
        <mxCell id="6_3hUqjpFfgXBnWn_kRa-12" style="edgeStyle=orthogonalEdgeStyle;rounded=0;orthogonalLoop=1;jettySize=auto;html=1;exitX=0.5;exitY=0;exitDx=0;exitDy=0;exitPerimeter=0;dashed=1;strokeWidth=3;" parent="1" source="6_3hUqjpFfgXBnWn_kRa-6" target="6_3hUqjpFfgXBnWn_kRa-5" edge="1">
          <mxGeometry relative="1" as="geometry" />
        </mxCell>
        <mxCell id="6_3hUqjpFfgXBnWn_kRa-13" value="&lt;font color=&quot;#00cc00&quot; face=&quot;Comic Sans MS&quot; style=&quot;background-color: rgb(230, 230, 230); font-size: 18px;&quot;&gt;Data&lt;/font&gt;" style="edgeLabel;html=1;align=center;verticalAlign=middle;resizable=0;points=[];" parent="6_3hUqjpFfgXBnWn_kRa-12" vertex="1" connectable="0">
          <mxGeometry x="0.1535" y="1" relative="1" as="geometry">
            <mxPoint as="offset" />
          </mxGeometry>
        </mxCell>
        <mxCell id="6_3hUqjpFfgXBnWn_kRa-16" value="" style="group;strokeColor=none;" parent="1" vertex="1" connectable="0">
          <mxGeometry x="730" y="60" width="240" height="130" as="geometry" />
        </mxCell>
        <object placeholders="1" c4Name="Data Filter" c4Type="Component" c4Technology="e.g.Python/Go, AWS Lambda" c4Description="Filter in data that is subscribed by customer" label="&lt;font style=&quot;font-size: 16px&quot;&gt;&lt;b&gt;%c4Name%&lt;/b&gt;&lt;/font&gt;&lt;div&gt;[%c4Type%: %c4Technology%]&lt;/div&gt;&lt;br&gt;&lt;div&gt;&lt;font style=&quot;font-size: 11px&quot;&gt;%c4Description%&lt;/font&gt;&lt;/div&gt;" id="6_3hUqjpFfgXBnWn_kRa-5">
          <mxCell style="rounded=1;whiteSpace=wrap;html=1;labelBackgroundColor=none;fillColor=#FF6666;fontColor=#ffffff;align=center;arcSize=6;strokeColor=#2086C9;metaEdit=1;resizable=0;points=[[0.25,0,0],[0.5,0,0],[0.75,0,0],[1,0.25,0],[1,0.5,0],[1,0.75,0],[0.75,1,0],[0.5,1,0],[0.25,1,0],[0,0.75,0],[0,0.5,0],[0,0.25,0]];strokeWidth=2;" parent="6_3hUqjpFfgXBnWn_kRa-16" vertex="1">
            <mxGeometry y="10" width="240" height="120" as="geometry" />
          </mxCell>
        </object>
        <mxCell id="6_3hUqjpFfgXBnWn_kRa-9" value="" style="sketch=0;points=[[0,0,0],[0.25,0,0],[0.5,0,0],[0.75,0,0],[1,0,0],[0,1,0],[0.25,1,0],[0.5,1,0],[0.75,1,0],[1,1,0],[0,0.25,0],[0,0.5,0],[0,0.75,0],[1,0.25,0],[1,0.5,0],[1,0.75,0]];outlineConnect=0;fontColor=#232F3E;gradientColor=#F78E04;gradientDirection=north;fillColor=#D05C17;strokeColor=#ffffff;dashed=0;verticalLabelPosition=bottom;verticalAlign=top;align=center;html=1;fontSize=12;fontStyle=0;aspect=fixed;shape=mxgraph.aws4.resourceIcon;resIcon=mxgraph.aws4.lambda;strokeWidth=2;movable=0;resizable=0;rotatable=0;deletable=0;editable=0;connectable=0;" parent="6_3hUqjpFfgXBnWn_kRa-16" vertex="1">
          <mxGeometry width="50" height="50" as="geometry" />
        </mxCell>
        <mxCell id="6_3hUqjpFfgXBnWn_kRa-17" value="" style="group" parent="1" vertex="1" connectable="0">
          <mxGeometry x="540" y="-270" width="240" height="130" as="geometry" />
        </mxCell>
        <object placeholders="1" c4Type="Data Stream" c4Container="Container" c4Technology="e.g. AWS Kinesis" label="&lt;font style=&quot;font-size: 16px&quot;&gt;&lt;b&gt;%c4Type%&lt;/b&gt;&lt;/font&gt;&lt;div&gt;[%c4Container%:&amp;nbsp;%c4Technology%]&lt;/div&gt;&lt;br&gt;&lt;div&gt;&lt;font style=&quot;font-size: 11px&quot;&gt;&lt;font color=&quot;#E6E6E6&quot;&gt;%c4Description%&lt;/font&gt;&lt;/div&gt;" c4Description="" id="6_3hUqjpFfgXBnWn_kRa-6">
          <mxCell style="shape=cylinder3;size=15;direction=south;whiteSpace=wrap;html=1;boundedLbl=1;rounded=0;labelBackgroundColor=none;fillColor=#999999;fontSize=12;fontColor=#ffffff;align=center;strokeColor=#333333;metaEdit=1;points=[[0.5,0,0],[1,0.25,0],[1,0.5,0],[1,0.75,0],[0.5,1,0],[0,0.75,0],[0,0.5,0],[0,0.25,0]];resizable=0;strokeWidth=2;" parent="6_3hUqjpFfgXBnWn_kRa-17" vertex="1">
            <mxGeometry y="10" width="240" height="120" as="geometry" />
          </mxCell>
        </object>
        <mxCell id="6_3hUqjpFfgXBnWn_kRa-8" value="" style="sketch=0;points=[[0,0,0],[0.25,0,0],[0.5,0,0],[0.75,0,0],[1,0,0],[0,1,0],[0.25,1,0],[0.5,1,0],[0.75,1,0],[1,1,0],[0,0.25,0],[0,0.5,0],[0,0.75,0],[1,0.25,0],[1,0.5,0],[1,0.75,0]];outlineConnect=0;fontColor=#232F3E;gradientColor=#945DF2;gradientDirection=north;fillColor=#5A30B5;strokeColor=#ffffff;dashed=0;verticalLabelPosition=bottom;verticalAlign=top;align=center;html=1;fontSize=12;fontStyle=0;aspect=fixed;shape=mxgraph.aws4.resourceIcon;resIcon=mxgraph.aws4.kinesis_data_streams;strokeWidth=2;" parent="6_3hUqjpFfgXBnWn_kRa-17" vertex="1">
          <mxGeometry width="48" height="48" as="geometry" />
        </mxCell>
        <mxCell id="6_3hUqjpFfgXBnWn_kRa-22" value="" style="group" parent="1" vertex="1" connectable="0">
          <mxGeometry x="730" y="370" width="240" height="120" as="geometry" />
        </mxCell>
        <object placeholders="1" c4Type="Data Buffer" c4Container="Container" c4Technology="e.g. AWS DynamoDB" c4Description="Store latest data, worthless data will be cleaned up at some point" label="&lt;font style=&quot;font-size: 16px&quot;&gt;&lt;b&gt;%c4Type%&lt;/b&gt;&lt;/font&gt;&lt;div&gt;[%c4Container%:&amp;nbsp;%c4Technology%]&lt;/div&gt;&lt;br&gt;&lt;div&gt;&lt;font style=&quot;font-size: 11px&quot;&gt;&lt;font color=&quot;#E6E6E6&quot;&gt;%c4Description%&lt;/font&gt;&lt;/div&gt;" id="6_3hUqjpFfgXBnWn_kRa-21">
          <mxCell style="shape=cylinder3;size=15;whiteSpace=wrap;html=1;boundedLbl=1;rounded=0;labelBackgroundColor=none;fillColor=#63BEF2;fontSize=12;fontColor=#ffffff;align=center;strokeColor=#0E7DAD;metaEdit=1;points=[[0.5,0,0],[1,0.25,0],[1,0.5,0],[1,0.75,0],[0.5,1,0],[0,0.75,0],[0,0.5,0],[0,0.25,0]];resizable=0;strokeWidth=2;fontFamily=Comic Sans MS;" parent="6_3hUqjpFfgXBnWn_kRa-22" vertex="1">
            <mxGeometry width="240" height="120" as="geometry" />
          </mxCell>
        </object>
        <mxCell id="6_3hUqjpFfgXBnWn_kRa-14" value="" style="sketch=0;points=[[0,0,0],[0.25,0,0],[0.5,0,0],[0.75,0,0],[1,0,0],[0,1,0],[0.25,1,0],[0.5,1,0],[0.75,1,0],[1,1,0],[0,0.25,0],[0,0.5,0],[0,0.75,0],[1,0.25,0],[1,0.5,0],[1,0.75,0]];outlineConnect=0;fontColor=#232F3E;gradientColor=#4D72F3;gradientDirection=north;fillColor=#3334B9;strokeColor=#ffffff;dashed=0;verticalLabelPosition=bottom;verticalAlign=top;align=center;html=1;fontSize=12;fontStyle=0;aspect=fixed;shape=mxgraph.aws4.resourceIcon;resIcon=mxgraph.aws4.dynamodb;labelBackgroundColor=#E6E6E6;strokeWidth=2;fontFamily=Comic Sans MS;" parent="6_3hUqjpFfgXBnWn_kRa-22" vertex="1">
          <mxGeometry width="51" height="51" as="geometry" />
        </mxCell>
        <mxCell id="6_3hUqjpFfgXBnWn_kRa-23" style="edgeStyle=orthogonalEdgeStyle;rounded=0;orthogonalLoop=1;jettySize=auto;html=1;entryX=0.5;entryY=0;entryDx=0;entryDy=0;entryPerimeter=0;fontFamily=Comic Sans MS;fontSize=18;fontColor=#00CC00;dashed=1;strokeWidth=3;" parent="1" source="6_3hUqjpFfgXBnWn_kRa-5" target="6_3hUqjpFfgXBnWn_kRa-21" edge="1">
          <mxGeometry relative="1" as="geometry" />
        </mxCell>
        <mxCell id="6_3hUqjpFfgXBnWn_kRa-24" value="Data of Subscribed&amp;nbsp;Device/Subject" style="edgeLabel;html=1;align=center;verticalAlign=middle;resizable=0;points=[];fontSize=18;fontFamily=Comic Sans MS;fontColor=#00CC00;labelBackgroundColor=#E6E6E6;" parent="6_3hUqjpFfgXBnWn_kRa-23" vertex="1" connectable="0">
          <mxGeometry x="0.025" y="3" relative="1" as="geometry">
            <mxPoint as="offset" />
          </mxGeometry>
        </mxCell>
        <mxCell id="DH_RuFh3FsCUKjjPfczZ-8" value="" style="group" parent="1" vertex="1" connectable="0">
          <mxGeometry x="1220" y="60" width="240" height="130" as="geometry" />
        </mxCell>
        <object placeholders="1" c4Name="Timer" c4Type="Component" c4Technology="e.g. AWS EventBridge" c4Description="Scheduled trigger for event polling in tenant level" label="&lt;font style=&quot;font-size: 16px&quot;&gt;&lt;b&gt;%c4Name%&lt;/b&gt;&lt;/font&gt;&lt;div&gt;[%c4Type%: %c4Technology%]&lt;/div&gt;&lt;br&gt;&lt;div&gt;&lt;font style=&quot;font-size: 11px&quot;&gt;%c4Description%&lt;/font&gt;&lt;/div&gt;" id="DH_RuFh3FsCUKjjPfczZ-6">
          <mxCell style="rounded=1;whiteSpace=wrap;html=1;labelBackgroundColor=none;fillColor=#63BEF2;fontColor=#ffffff;align=center;arcSize=6;strokeColor=#2086C9;metaEdit=1;resizable=0;points=[[0.25,0,0],[0.5,0,0],[0.75,0,0],[1,0.25,0],[1,0.5,0],[1,0.75,0],[0.75,1,0],[0.5,1,0],[0.25,1,0],[0,0.75,0],[0,0.5,0],[0,0.25,0]];strokeWidth=2;" parent="DH_RuFh3FsCUKjjPfczZ-8" vertex="1">
            <mxGeometry y="10" width="240" height="120" as="geometry" />
          </mxCell>
        </object>
        <mxCell id="DH_RuFh3FsCUKjjPfczZ-4" value="" style="sketch=0;points=[[0,0,0],[0.25,0,0],[0.5,0,0],[0.75,0,0],[1,0,0],[0,1,0],[0.25,1,0],[0.5,1,0],[0.75,1,0],[1,1,0],[0,0.25,0],[0,0.5,0],[0,0.75,0],[1,0.25,0],[1,0.5,0],[1,0.75,0]];outlineConnect=0;fontColor=#232F3E;gradientColor=#FF4F8B;gradientDirection=north;fillColor=#BC1356;strokeColor=#ffffff;dashed=0;verticalLabelPosition=bottom;verticalAlign=top;align=center;html=1;fontSize=12;fontStyle=0;aspect=fixed;shape=mxgraph.aws4.resourceIcon;resIcon=mxgraph.aws4.eventbridge;labelBackgroundColor=#E6E6E6;strokeWidth=2;fontFamily=Comic Sans MS;" parent="DH_RuFh3FsCUKjjPfczZ-8" vertex="1">
          <mxGeometry width="50" height="50" as="geometry" />
        </mxCell>
        <mxCell id="DH_RuFh3FsCUKjjPfczZ-9" value="" style="group;strokeColor=none;" parent="1" vertex="1" connectable="0">
          <mxGeometry x="1220" y="360" width="240" height="130" as="geometry" />
        </mxCell>
        <object placeholders="1" c4Name="Event Poller" c4Type="Component" c4Technology="e.g. Spring Cloud Function, AWS Lambda" c4Description="Select mature events then store them to &#39;Event Hub&#39;" label="&lt;font style=&quot;font-size: 16px&quot;&gt;&lt;b&gt;%c4Name%&lt;/b&gt;&lt;/font&gt;&lt;div&gt;[%c4Type%: %c4Technology%]&lt;/div&gt;&lt;br&gt;&lt;div&gt;&lt;font style=&quot;font-size: 11px&quot;&gt;%c4Description%&lt;/font&gt;&lt;/div&gt;" id="DH_RuFh3FsCUKjjPfczZ-10">
          <mxCell style="rounded=1;whiteSpace=wrap;html=1;labelBackgroundColor=none;fillColor=#63BEF2;fontColor=#ffffff;align=center;arcSize=6;strokeColor=#2086C9;metaEdit=1;resizable=0;points=[[0.25,0,0],[0.5,0,0],[0.75,0,0],[1,0.25,0],[1,0.5,0],[1,0.75,0],[0.75,1,0],[0.5,1,0],[0.25,1,0],[0,0.75,0],[0,0.5,0],[0,0.25,0]];strokeWidth=2;" parent="DH_RuFh3FsCUKjjPfczZ-9" vertex="1">
            <mxGeometry y="10" width="240" height="120" as="geometry" />
          </mxCell>
        </object>
        <mxCell id="DH_RuFh3FsCUKjjPfczZ-11" value="" style="sketch=0;points=[[0,0,0],[0.25,0,0],[0.5,0,0],[0.75,0,0],[1,0,0],[0,1,0],[0.25,1,0],[0.5,1,0],[0.75,1,0],[1,1,0],[0,0.25,0],[0,0.5,0],[0,0.75,0],[1,0.25,0],[1,0.5,0],[1,0.75,0]];outlineConnect=0;fontColor=#232F3E;gradientColor=#F78E04;gradientDirection=north;fillColor=#D05C17;strokeColor=#ffffff;dashed=0;verticalLabelPosition=bottom;verticalAlign=top;align=center;html=1;fontSize=12;fontStyle=0;aspect=fixed;shape=mxgraph.aws4.resourceIcon;resIcon=mxgraph.aws4.lambda;strokeWidth=2;movable=0;resizable=0;rotatable=0;deletable=0;editable=0;connectable=0;" parent="DH_RuFh3FsCUKjjPfczZ-9" vertex="1">
          <mxGeometry width="50" height="50" as="geometry" />
        </mxCell>
        <mxCell id="DH_RuFh3FsCUKjjPfczZ-12" style="edgeStyle=orthogonalEdgeStyle;rounded=0;orthogonalLoop=1;jettySize=auto;html=1;fontFamily=Comic Sans MS;fontSize=15;fontColor=#00CC00;strokeWidth=3;dashed=1;strokeColor=#FFB570;" parent="1" source="DH_RuFh3FsCUKjjPfczZ-6" target="DH_RuFh3FsCUKjjPfczZ-10" edge="1">
          <mxGeometry relative="1" as="geometry" />
        </mxCell>
        <mxCell id="DH_RuFh3FsCUKjjPfczZ-15" value="&lt;span style=&quot;background-color: rgb(230, 230, 230);&quot;&gt;1. Invoke&lt;/span&gt;" style="edgeLabel;html=1;align=center;verticalAlign=middle;resizable=0;points=[];fontSize=15;fontFamily=Comic Sans MS;fontColor=#00CC00;" parent="DH_RuFh3FsCUKjjPfczZ-12" vertex="1" connectable="0">
          <mxGeometry x="-0.0095" y="2" relative="1" as="geometry">
            <mxPoint as="offset" />
          </mxGeometry>
        </mxCell>
        <object placeholders="1" c4Name="Event Hub" c4Type="Container" c4Technology="e.g. AWS SQS, MySQL/AWS RDS" c4Description="&#xa;" label="&lt;font style=&quot;font-size: 16px&quot;&gt;&lt;b&gt;%c4Name%&lt;/b&gt;&lt;/font&gt;&lt;div&gt;[%c4Type%: %c4Technology%]&lt;/div&gt;&lt;br&gt;&lt;div&gt;&lt;font style=&quot;font-size: 11px&quot;&gt;&lt;font color=&quot;#E6E6E6&quot;&gt;%c4Description%&lt;/font&gt;&lt;/div&gt;" id="DH_RuFh3FsCUKjjPfczZ-18">
          <mxCell style="rounded=1;whiteSpace=wrap;html=1;fontSize=11;labelBackgroundColor=none;fillColor=#999999;fontColor=#ffffff;align=center;arcSize=10;strokeColor=#333333;metaEdit=1;resizable=0;points=[[0.25,0,0],[0.5,0,0],[0.75,0,0],[1,0.25,0],[1,0.5,0],[1,0.75,0],[0.75,1,0],[0.5,1,0],[0.25,1,0],[0,0.75,0],[0,0.5,0],[0,0.25,0]];strokeWidth=2;fontFamily=Comic Sans MS;" parent="1" vertex="1">
            <mxGeometry x="550" y="630" width="240" height="120" as="geometry" />
          </mxCell>
        </object>
        <mxCell id="DH_RuFh3FsCUKjjPfczZ-19" value="&lt;font color=&quot;#000000&quot; style=&quot;font-size: 18px; background-color: rgb(99, 190, 242);&quot;&gt;To be built&lt;/font&gt;" style="rounded=0;whiteSpace=wrap;html=1;labelBackgroundColor=#E6E6E6;strokeColor=#000000;strokeWidth=3;fontFamily=Comic Sans MS;fontSize=15;fontColor=#00CC00;fillColor=#63BEF2;" parent="1" vertex="1">
          <mxGeometry x="1360" y="-210" width="140" height="40" as="geometry" />
        </mxCell>
        <mxCell id="DH_RuFh3FsCUKjjPfczZ-20" value="&lt;font color=&quot;#000000&quot;&gt;&lt;span style=&quot;font-size: 18px; background-color: rgb(153, 153, 153);&quot;&gt;Existing&lt;/span&gt;&lt;/font&gt;" style="rounded=0;whiteSpace=wrap;html=1;labelBackgroundColor=#E6E6E6;strokeColor=#000000;strokeWidth=3;fontFamily=Comic Sans MS;fontSize=15;fontColor=#00CC00;fillColor=#999999;" parent="1" vertex="1">
          <mxGeometry x="1360" y="-160" width="140" height="40" as="geometry" />
        </mxCell>
        <mxCell id="DH_RuFh3FsCUKjjPfczZ-21" style="edgeStyle=orthogonalEdgeStyle;rounded=0;orthogonalLoop=1;jettySize=auto;html=1;entryX=1;entryY=0.5;entryDx=0;entryDy=0;entryPerimeter=0;dashed=1;strokeColor=#FFB570;strokeWidth=3;fontFamily=Comic Sans MS;fontSize=18;fontColor=#000000;exitX=0.5;exitY=1;exitDx=0;exitDy=0;exitPerimeter=0;" parent="1" source="DH_RuFh3FsCUKjjPfczZ-10" target="DH_RuFh3FsCUKjjPfczZ-18" edge="1">
          <mxGeometry relative="1" as="geometry">
            <mxPoint x="1340" y="490" as="sourcePoint" />
          </mxGeometry>
        </mxCell>
        <mxCell id="DH_RuFh3FsCUKjjPfczZ-22" value="&lt;span style=&quot;background-color: rgb(230, 230, 230);&quot;&gt;&lt;font color=&quot;#00cc00&quot;&gt;3. Mature Event&lt;/font&gt;&lt;/span&gt;" style="edgeLabel;html=1;align=center;verticalAlign=middle;resizable=0;points=[];fontSize=18;fontFamily=Comic Sans MS;fontColor=#000000;" parent="DH_RuFh3FsCUKjjPfczZ-21" vertex="1" connectable="0">
          <mxGeometry x="-0.34" y="2" relative="1" as="geometry">
            <mxPoint x="-153" y="-2" as="offset" />
          </mxGeometry>
        </mxCell>
        <mxCell id="DH_RuFh3FsCUKjjPfczZ-14" style="edgeStyle=orthogonalEdgeStyle;orthogonalLoop=1;jettySize=auto;html=1;entryX=1;entryY=0.5;entryDx=0;entryDy=0;entryPerimeter=0;fontFamily=Comic Sans MS;fontSize=15;fontColor=#00CC00;strokeWidth=3;dashed=1;rounded=0;strokeColor=#FFB570;" parent="1" source="DH_RuFh3FsCUKjjPfczZ-10" target="6_3hUqjpFfgXBnWn_kRa-21" edge="1">
          <mxGeometry relative="1" as="geometry" />
        </mxCell>
        <mxCell id="DH_RuFh3FsCUKjjPfczZ-16" value="2. Query Buffered Data" style="edgeLabel;html=1;align=center;verticalAlign=middle;resizable=0;points=[];fontSize=15;fontFamily=Comic Sans MS;fontColor=#00CC00;labelBackgroundColor=#E6E6E6;" parent="DH_RuFh3FsCUKjjPfczZ-14" vertex="1" connectable="0">
          <mxGeometry x="0.2318" y="-1" relative="1" as="geometry">
            <mxPoint x="34" y="1" as="offset" />
          </mxGeometry>
        </mxCell>
        <mxCell id="DH_RuFh3FsCUKjjPfczZ-23" value="" style="group;strokeColor=none;" parent="1" vertex="1" connectable="0">
          <mxGeometry x="350" y="60" width="240" height="130" as="geometry" />
        </mxCell>
        <object placeholders="1" c4Name="Data Filter" c4Type="Component" c4Technology="e.g. Spring Cloud Function, AWS Lambda" c4Description="Filter in subscribed data and select/produce pending event " label="&lt;font style=&quot;font-size: 16px&quot;&gt;&lt;b&gt;%c4Name%&lt;/b&gt;&lt;/font&gt;&lt;div&gt;[%c4Type%: %c4Technology%]&lt;/div&gt;&lt;br&gt;&lt;div&gt;&lt;font style=&quot;font-size: 11px&quot;&gt;%c4Description%&lt;/font&gt;&lt;/div&gt;" id="DH_RuFh3FsCUKjjPfczZ-24">
          <mxCell style="rounded=1;whiteSpace=wrap;html=1;labelBackgroundColor=none;fillColor=#999999;fontColor=#ffffff;align=center;arcSize=6;strokeColor=#333333;metaEdit=1;resizable=0;points=[[0.25,0,0],[0.5,0,0],[0.75,0,0],[1,0.25,0],[1,0.5,0],[1,0.75,0],[0.75,1,0],[0.5,1,0],[0.25,1,0],[0,0.75,0],[0,0.5,0],[0,0.25,0]];strokeWidth=2;" parent="DH_RuFh3FsCUKjjPfczZ-23" vertex="1">
            <mxGeometry y="10" width="240" height="120" as="geometry" />
          </mxCell>
        </object>
        <mxCell id="DH_RuFh3FsCUKjjPfczZ-25" value="" style="sketch=0;points=[[0,0,0],[0.25,0,0],[0.5,0,0],[0.75,0,0],[1,0,0],[0,1,0],[0.25,1,0],[0.5,1,0],[0.75,1,0],[1,1,0],[0,0.25,0],[0,0.5,0],[0,0.75,0],[1,0.25,0],[1,0.5,0],[1,0.75,0]];outlineConnect=0;fontColor=#232F3E;gradientColor=#F78E04;gradientDirection=north;fillColor=#D05C17;strokeColor=#ffffff;dashed=0;verticalLabelPosition=bottom;verticalAlign=top;align=center;html=1;fontSize=12;fontStyle=0;aspect=fixed;shape=mxgraph.aws4.resourceIcon;resIcon=mxgraph.aws4.lambda;strokeWidth=2;movable=0;resizable=0;rotatable=0;deletable=0;editable=0;connectable=0;" parent="DH_RuFh3FsCUKjjPfczZ-23" vertex="1">
          <mxGeometry width="50" height="50" as="geometry" />
        </mxCell>
        <mxCell id="DH_RuFh3FsCUKjjPfczZ-31" value="" style="group" parent="1" vertex="1" connectable="0">
          <mxGeometry x="340" y="363" width="240" height="134" as="geometry" />
        </mxCell>
        <object placeholders="1" c4Name="Event Dispatcher" c4Type="Component" c4Technology="e.g.Spring Cloud Function,AWS EC2" label="&lt;font style=&quot;font-size: 16px&quot;&gt;&lt;b&gt;%c4Name%&lt;/b&gt;&lt;/font&gt;&lt;div&gt;[%c4Type%: %c4Technology%]&lt;/div&gt;&lt;br&gt;&lt;div&gt;&lt;font style=&quot;font-size: 11px&quot;&gt;%c4Description%&lt;/font&gt;&lt;/div&gt;" c4Description="" id="DH_RuFh3FsCUKjjPfczZ-27">
          <mxCell style="rounded=1;whiteSpace=wrap;html=1;labelBackgroundColor=none;fillColor=#999999;fontColor=#ffffff;align=center;arcSize=6;strokeColor=#333333;metaEdit=1;resizable=0;points=[[0.25,0,0],[0.5,0,0],[0.75,0,0],[1,0.25,0],[1,0.5,0],[1,0.75,0],[0.75,1,0],[0.5,1,0],[0.25,1,0],[0,0.75,0],[0,0.5,0],[0,0.25,0]];strokeWidth=2;" parent="DH_RuFh3FsCUKjjPfczZ-31" vertex="1">
            <mxGeometry y="14" width="240" height="120" as="geometry" />
          </mxCell>
        </object>
        <mxCell id="DH_RuFh3FsCUKjjPfczZ-30" value="" style="sketch=0;points=[[0,0,0],[0.25,0,0],[0.5,0,0],[0.75,0,0],[1,0,0],[0,1,0],[0.25,1,0],[0.5,1,0],[0.75,1,0],[1,1,0],[0,0.25,0],[0,0.5,0],[0,0.75,0],[1,0.25,0],[1,0.5,0],[1,0.75,0]];outlineConnect=0;fontColor=#232F3E;gradientColor=#F78E04;gradientDirection=north;fillColor=#D05C17;strokeColor=#ffffff;dashed=0;verticalLabelPosition=bottom;verticalAlign=top;align=center;html=1;fontSize=12;fontStyle=0;aspect=fixed;shape=mxgraph.aws4.resourceIcon;resIcon=mxgraph.aws4.ec2;labelBackgroundColor=#E6E6E6;strokeWidth=3;fontFamily=Comic Sans MS;" parent="DH_RuFh3FsCUKjjPfczZ-31" vertex="1">
          <mxGeometry width="48" height="48" as="geometry" />
        </mxCell>
        <mxCell id="DH_RuFh3FsCUKjjPfczZ-32" style="edgeStyle=orthogonalEdgeStyle;rounded=0;orthogonalLoop=1;jettySize=auto;html=1;dashed=1;strokeColor=#999999;strokeWidth=3;fontFamily=Comic Sans MS;fontSize=18;fontColor=#00CC00;exitX=0.5;exitY=1;exitDx=0;exitDy=0;exitPerimeter=0;" parent="1" source="6_3hUqjpFfgXBnWn_kRa-6" target="DH_RuFh3FsCUKjjPfczZ-24" edge="1">
          <mxGeometry relative="1" as="geometry" />
        </mxCell>
        <mxCell id="DH_RuFh3FsCUKjjPfczZ-40" value="&lt;span style=&quot;background-color: rgb(230, 230, 230);&quot;&gt;Data&lt;/span&gt;" style="edgeLabel;html=1;align=center;verticalAlign=middle;resizable=0;points=[];fontSize=18;fontFamily=Comic Sans MS;fontColor=#00CC00;" parent="DH_RuFh3FsCUKjjPfczZ-32" vertex="1" connectable="0">
          <mxGeometry x="0.1824" y="2" relative="1" as="geometry">
            <mxPoint as="offset" />
          </mxGeometry>
        </mxCell>
        <mxCell id="DH_RuFh3FsCUKjjPfczZ-36" style="edgeStyle=orthogonalEdgeStyle;rounded=0;orthogonalLoop=1;jettySize=auto;html=1;entryX=0;entryY=0.5;entryDx=0;entryDy=0;entryPerimeter=0;dashed=1;strokeColor=#FF9999;strokeWidth=3;fontFamily=Comic Sans MS;fontSize=18;fontColor=#00CC00;" parent="1" source="DH_RuFh3FsCUKjjPfczZ-27" target="DH_RuFh3FsCUKjjPfczZ-18" edge="1">
          <mxGeometry relative="1" as="geometry" />
        </mxCell>
        <mxCell id="DH_RuFh3FsCUKjjPfczZ-44" value="Mature Event" style="edgeLabel;html=1;align=center;verticalAlign=middle;resizable=0;points=[];fontSize=18;fontFamily=Comic Sans MS;fontColor=#00CC00;labelBackgroundColor=#E6E6E6;" parent="DH_RuFh3FsCUKjjPfczZ-36" vertex="1" connectable="0">
          <mxGeometry x="-0.1449" y="-5" relative="1" as="geometry">
            <mxPoint as="offset" />
          </mxGeometry>
        </mxCell>
        <mxCell id="DH_RuFh3FsCUKjjPfczZ-38" value="" style="group" parent="1" vertex="1" connectable="0">
          <mxGeometry x="80" y="230" width="250" height="120" as="geometry" />
        </mxCell>
        <object placeholders="1" c4Type="Pending Event Hub" c4Container="Container" c4Technology="e.g. AWS ElastiCache/Redis" c4Description="Store pending events which are unstable with a TTL" label="&lt;font style=&quot;font-size: 16px&quot;&gt;&lt;b&gt;%c4Type%&lt;/b&gt;&lt;/font&gt;&lt;div&gt;[%c4Container%:&amp;nbsp;%c4Technology%]&lt;/div&gt;&lt;br&gt;&lt;div&gt;&lt;font style=&quot;font-size: 11px&quot;&gt;&lt;font color=&quot;#E6E6E6&quot;&gt;%c4Description%&lt;/font&gt;&lt;/div&gt;" id="DH_RuFh3FsCUKjjPfczZ-29">
          <mxCell style="shape=cylinder3;size=15;direction=south;whiteSpace=wrap;html=1;boundedLbl=1;rounded=0;labelBackgroundColor=none;fillColor=#999999;fontSize=12;fontColor=#ffffff;align=center;strokeColor=#333333;metaEdit=1;points=[[0.5,0,0],[1,0.25,0],[1,0.5,0],[1,0.75,0],[0.5,1,0],[0,0.75,0],[0,0.5,0],[0,0.25,0]];resizable=0;strokeWidth=3;fontFamily=Comic Sans MS;" parent="DH_RuFh3FsCUKjjPfczZ-38" vertex="1">
            <mxGeometry x="10" width="240" height="120" as="geometry" />
          </mxCell>
        </object>
        <mxCell id="DH_RuFh3FsCUKjjPfczZ-33" value="" style="sketch=0;points=[[0,0,0],[0.25,0,0],[0.5,0,0],[0.75,0,0],[1,0,0],[0,1,0],[0.25,1,0],[0.5,1,0],[0.75,1,0],[1,1,0],[0,0.25,0],[0,0.5,0],[0,0.75,0],[1,0.25,0],[1,0.5,0],[1,0.75,0]];outlineConnect=0;fontColor=#232F3E;gradientColor=#4D72F3;gradientDirection=north;fillColor=#3334B9;strokeColor=#ffffff;dashed=0;verticalLabelPosition=bottom;verticalAlign=top;align=center;html=1;fontSize=12;fontStyle=0;aspect=fixed;shape=mxgraph.aws4.resourceIcon;resIcon=mxgraph.aws4.elasticache;labelBackgroundColor=#E6E6E6;strokeWidth=3;fontFamily=Comic Sans MS;" parent="DH_RuFh3FsCUKjjPfczZ-38" vertex="1">
          <mxGeometry y="30" width="48" height="48" as="geometry" />
        </mxCell>
        <mxCell id="DH_RuFh3FsCUKjjPfczZ-39" style="edgeStyle=orthogonalEdgeStyle;rounded=0;orthogonalLoop=1;jettySize=auto;html=1;exitX=0;exitY=0.5;exitDx=0;exitDy=0;exitPerimeter=0;entryX=-0.008;entryY=0.542;entryDx=0;entryDy=0;entryPerimeter=0;dashed=1;strokeColor=#999999;strokeWidth=3;fontFamily=Comic Sans MS;fontSize=18;fontColor=#00CC00;" parent="1" source="DH_RuFh3FsCUKjjPfczZ-24" target="DH_RuFh3FsCUKjjPfczZ-29" edge="1">
          <mxGeometry relative="1" as="geometry" />
        </mxCell>
        <mxCell id="DH_RuFh3FsCUKjjPfczZ-41" value="Pending Event" style="edgeLabel;html=1;align=center;verticalAlign=middle;resizable=0;points=[];fontSize=18;fontFamily=Comic Sans MS;fontColor=#00CC00;labelBackgroundColor=#E6E6E6;" parent="DH_RuFh3FsCUKjjPfczZ-39" vertex="1" connectable="0">
          <mxGeometry x="0.0918" y="-3" relative="1" as="geometry">
            <mxPoint as="offset" />
          </mxGeometry>
        </mxCell>
        <mxCell id="DH_RuFh3FsCUKjjPfczZ-42" style="edgeStyle=orthogonalEdgeStyle;rounded=0;orthogonalLoop=1;jettySize=auto;html=1;entryX=0.5;entryY=0;entryDx=0;entryDy=0;entryPerimeter=0;dashed=1;strokeColor=#FF9999;strokeWidth=3;fontFamily=Comic Sans MS;fontSize=18;fontColor=#00CC00;" parent="1" source="DH_RuFh3FsCUKjjPfczZ-29" target="DH_RuFh3FsCUKjjPfczZ-27" edge="1">
          <mxGeometry relative="1" as="geometry" />
        </mxCell>
        <mxCell id="DH_RuFh3FsCUKjjPfczZ-43" value="Mature Event" style="edgeLabel;html=1;align=center;verticalAlign=middle;resizable=0;points=[];fontSize=18;fontFamily=Comic Sans MS;fontColor=#00CC00;labelBackgroundColor=#E6E6E6;" parent="DH_RuFh3FsCUKjjPfczZ-42" vertex="1" connectable="0">
          <mxGeometry x="-0.1613" y="-1" relative="1" as="geometry">
            <mxPoint as="offset" />
          </mxGeometry>
        </mxCell>
        <mxCell id="bIcr6NeWUArTX9h2mSKB-1" value="&lt;font color=&quot;#000000&quot; style=&quot;font-size: 18px; background-color: rgb(255, 102, 102);&quot;&gt;To be changed&lt;/font&gt;" style="rounded=0;whiteSpace=wrap;html=1;labelBackgroundColor=#E6E6E6;strokeColor=#000000;strokeWidth=3;fontFamily=Comic Sans MS;fontSize=15;fontColor=#00CC00;fillColor=#FF6666;" parent="1" vertex="1">
          <mxGeometry x="1360" y="-260" width="140" height="40" as="geometry" />
        </mxCell>
      </root>
    </mxGraphModel>
  </diagram>
</mxfile>
